<svg xmlns="http://www.w3.org/2000/svg" width="1200" height="760" viewBox="0 0 1200 760"><defs><linearGradient id="g" x1="0" x2="1" y1="0" y2="1"><stop offset="0%" stop-color="#0f172a"/><stop offset="55%" stop-color="#1e3a8a"/><stop offset="100%" stop-color="#0891b2"/></linearGradient><filter id="s"><feDropShadow dx="0" dy="24" stdDeviation="28" flood-color="#020617" flood-opacity="0.35"/></filter></defs><rect width="1200" height="760" rx="42" fill="url(#g)"/><circle cx="1040" cy="115" r="135" fill="#38bdf8" opacity="0.18"/><circle cx="160" cy="650" r="160" fill="#a78bfa" opacity="0.16"/><rect x="105" y="115" width="990" height="530" rx="34" fill="#ffffff" opacity="0.95" filter="url(#s)"/><rect x="150" y="165" width="900" height="58" rx="16" fill="#e0f2fe"/><circle cx="187" cy="194" r="10" fill="#ef4444"/><circle cx="222" cy="194" r="10" fill="#f59e0b"/><circle cx="257" cy="194" r="10" fill="#22c55e"/><rect x="150" y="265" width="360" height="245" rx="22" fill="#f1f5f9"/><rect x="555" y="265" width="495" height="42" rx="12" fill="#cbd5e1"/><rect x="555" y="335" width="420" height="28" rx="10" fill="#e2e8f0"/><rect x="555" y="385" width="465" height="28" rx="10" fill="#e2e8f0"/><rect x="555" y="450" width="122" height="38" rx="19" fill="#bae6fd"/><rect x="695" y="450" width="122" height="38" rx="19" fill="#ddd6fe"/><rect x="835" y="450" width="122" height="38" rx="19" fill="#dcfce7"/><text x="600" y="585" font-family="Arial, Helvetica, sans-serif" font-size="48" font-weight="800" fill="#0f172a" text-anchor="middle">Education Platform</text><text x="600" y="625" font-family="Arial, Helvetica, sans-serif" font-size="24" fill="#475569" text-anchor="middle">React · Node.js · MySQL</text></svg>
